Coordinates
version=1
nRows=10
nColumns=63
inDegrees=yes

Units are S.I. units (second, meters, Newtons, ...)
If the header above contains a line with 'inDegrees', this indicates whether rotational values are in degrees (yes) or radians (no).

endheader
time	pelvis_tilt	pelvis_list	pelvis_rotation	pelvis_tx	pelvis_ty	pelvis_tz	hip_flexion_r	hip_adduction_r	hip_rotation_r	knee_angle_r	knee_angle_r_beta	ankle_angle_r	subtalar_angle_r	mtp_angle_r	hip_flexion_l	hip_adduction_l	hip_rotation_l	knee_angle_l	knee_angle_l_beta	ankle_angle_l	subtalar_angle_l	mtp_angle_l	L5_S1_Flex_Ext	L5_S1_Lat_Bending	L5_S1_axial_rotation	L4_L5_Flex_Ext	L4_L5_Lat_Bending	L4_L5_axial_rotation	L3_L4_Flex_Ext	L3_L4_Lat_Bending	L3_L4_axial_rotation	L2_L3_Flex_Ext	L2_L3_Lat_Bending	L2_L3_axial_rotation	L1_L2_Flex_Ext	L1_L2_Lat_Bending	L1_L2_axial_rotation	L1_T12_Flex_Ext	L1_T12_Lat_Bending	L1_T12_axial_rotation	Abs_r3	Abs_r2	Abs_r1	Abs_t1	Abs_t2	neck_flexion	neck_bending	neck_rotation	arm_flex_r	arm_add_r	arm_rot_r	elbow_flex_r	pro_sup_r	wrist_flex_r	wrist_dev_r	arm_flex_l	arm_add_l	arm_rot_l	elbow_flex_l	pro_sup_l	wrist_flex_l	wrist_dev_l
      0.00000000	      0.90076791	     -3.79853559	    100.53243143	      0.01678512	      0.97980374	      0.71808755	      0.81044252	     -2.24935755	      8.92665260	      0.48251212	      0.00842143	     26.90260771	    -15.27127716	      0.00000000	      3.49718775	      1.08092003	     21.28724182	      0.93504882	      0.01631968	     26.72190816	    -15.89567425	      0.00000000	      0.39409219	     -0.28052827	     -1.01958658	      0.73186861	     -0.37310260	     -1.08331074	      0.64745406	     -0.68207644	     -1.08331074	      0.45040797	     -0.68207644	     -0.89213826	      0.36595401	     -0.57205325	     -0.82841409	      0.22518428	     -0.43453829	     -0.76468993	      2.81496112	     -3.17339192	     -5.67063467	      0.00000000	      0.00000000	     27.92574689	      8.62589281	      1.52196294	     13.61760670	      0.19570621	     63.22357372	     21.13209340	      3.62451783	      0.53181922	      1.92020132	     16.63152223	     -1.34969388	     73.74336215	     24.44871990	     55.81599690	      0.28928538	     -7.53455084
      0.01694915	      1.12265220	     -3.71239687	    100.87007062	      0.01760489	      0.97860258	      0.71698413	      0.40681502	     -1.86878707	      8.88223578	      0.51147642	      0.00892695	     26.48253353	    -15.19823864	      0.00000000	      3.38122620	      0.76492462	     21.50813709	      1.01078695	      0.01764156	     26.81351966	    -15.87373469	      0.00000000	      0.39998935	     -0.26502663	     -1.07583031	      0.74282022	     -0.35248542	     -1.14306971	      0.65714250	     -0.64438575	     -1.14306971	      0.45714783	     -0.64438575	     -0.94135153	      0.37143011	     -0.54044231	     -0.87411213	      0.22855392	     -0.41052625	     -0.80687274	      2.85708393	     -2.99803426	     -5.98344546	      0.00000000	      0.00000000	     27.86794833	      8.56526236	      1.61610773	     13.22296573	      0.48788792	     63.20495382	     21.07817080	      3.52694148	      0.47528466	      2.26758997	     16.38148598	     -1.75483420	     74.18861674	     24.81525175	     56.07847031	      0.48738721	     -7.43956442
      0.03389831	      1.54517503	     -3.53077616	    102.37160910	      0.01676860	      0.97781699	      0.71711521	     -0.02793910	     -1.29357533	      7.70828973	      0.54555696	      0.00952177	     26.20121036	    -15.38107265	      0.00000000	      3.41284367	      0.31350521	     23.33797812	      1.17269019	      0.02046730	     26.77713485	    -16.23811664	      0.00000000	      0.37693708	     -0.22801353	     -1.32203456	      0.70000986	     -0.30325799	     -1.40466172	      0.61926993	     -0.55439210	     -1.40466172	      0.43080139	     -0.55439210	     -1.15678024	      0.35002378	     -0.46496519	     -1.07415308	      0.21538185	     -0.35319296	     -0.99152592	      2.69242389	     -2.57933465	     -7.35275959	      0.00000000	      0.00000000	     27.87915143	      8.59291227	      1.94938973	     12.95269405	      0.63220747	     61.92756026	     21.22511501	      3.39658569	      0.18815532	      3.48257307	     16.52873507	     -1.94683212	     75.26631533	     24.96709326	     56.76420948	      0.35440108	     -7.48745344
      0.05084746	      1.75877977	     -3.41335841	    102.72230967	      0.01724151	      0.97734331	      0.71650670	     -0.26123984	     -0.96786813	      7.55205597	      0.55630811	      0.00970941	     26.08307308	    -15.40723764	      0.00000000	      3.32211877	      0.01620238	     23.69792426	      1.21880491	      0.02127216	     26.95827051	    -16.15339267	      0.00000000	      0.37596434	     -0.21488947	     -1.33981504	      0.69820338	     -0.28580299	     -1.42355348	      0.61767182	     -0.52248225	     -1.42355348	      0.42968965	     -0.52248225	     -1.17233816	      0.34912049	     -0.43820260	     -1.08859972	      0.21482602	     -0.33286378	     -1.00486128	      2.68547570	     -2.43087262	     -7.45164933	      0.00000000	      0.00000000	     27.86379557	      8.62098990	      1.81287860	     12.79049958	      0.69933846	     61.95476246	     21.19643018	      3.42307845	      0.11930867	      3.71483463	     16.50051103	     -2.13115267	     75.70362410	     25.22403475	     57.00889174	      0.47588074	     -7.29597125
      0.06779661	      1.79672133	     -3.39124121	    102.87392408	      0.01757744	      0.97711790	      0.71627587	     -0.32588416	     -0.89246693	      7.55326829	      0.59316199	      0.01035263	     26.07514857	    -15.40101539	      0.00000000	      3.30077529	     -0.04094792	     23.72024470	      1.24454094	      0.02172134	     26.95112402	    -16.14428379	      0.00000000	      0.37893863	     -0.21839004	     -1.32972194	      0.70372692	     -0.29045875	     -1.41282956	      0.62255827	     -0.53099354	     -1.41282956	      0.43308896	     -0.53099354	     -1.16350670	      0.35188241	     -0.44534097	     -1.08039908	      0.21652553	     -0.33828617	     -0.99729145	      2.70672072	     -2.47047180	     -7.39551451	      0.00000000	      0.00000000	     27.89469698	      8.61591667	      1.81034335	     12.71239379	      0.72001108	     61.98090266	     21.19428599	      3.42978269	      0.11131180	      3.74328250	     16.44033806	     -2.14928274	     75.74665890	     25.22035027	     57.02666418	      0.47612920	     -7.27800229
      0.08474576	      2.08572887	     -3.18357316	    103.96227694	      0.01662860	      0.97718074	      0.71585179	     -0.62889981	     -0.50172091	      5.98464113	      0.55649544	      0.00971268	     26.34327649	    -14.77549501	      0.00000000	      3.24173225	     -0.36336860	     25.17284139	      1.34454826	      0.02346679	     27.07072628	    -16.36650363	      0.00000000	      0.36932948	     -0.20335449	     -1.45873668	      0.68588177	     -0.27046147	     -1.54990772	      0.60677140	     -0.49443611	     -1.54990772	      0.42210666	     -0.49443611	     -1.27639460	      0.34295935	     -0.41468047	     -1.18522355	      0.21103486	     -0.31499610	     -1.09405251	      2.63808352	     -2.30038666	     -8.11305580	      0.00000000	      0.00000000	     27.91294764	      8.32095640	      0.50262597	     12.68941665	      0.63164198	     62.51091454	     21.13521457	      3.41288555	      0.10084206	      3.76410633	     16.80979938	     -2.11903675	     77.77886448	     25.17836540	     56.21186792	      0.16455921	     -7.33439013
      0.10169492	      2.11412235	     -3.15177468	    104.03874225	      0.01668275	      0.97719900	      0.71520939	     -0.68078159	     -0.45566829	      5.96282194	      0.55661741	      0.00971481	     26.44675041	    -14.83546926	      0.00000000	      3.18170568	     -0.41039393	     25.20502236	      1.34963868	      0.02355564	     27.10110594	    -16.33670517	      0.00000000	      0.37745920	     -0.20375108	     -1.44761539	      0.70097948	     -0.27098894	     -1.53809136	      0.62012772	     -0.49540038	     -1.53809136	      0.43139812	     -0.49540038	     -1.26666347	      0.35050861	     -0.41548920	     -1.17618751	      0.21568019	     -0.31561042	     -1.08571155	      2.69615331	     -2.30487296	     -8.05120253	      0.00000000	      0.00000000	     27.94382425	      8.34283783	      0.49333657	     12.61462777	      0.60748697	     62.56520036	     21.09575124	      3.43304048	      0.07925310	      3.78507367	     16.74867622	     -2.10046458	     77.79336887	     25.19420587	     56.20041067	      0.16099207	     -7.33481839
      0.11864407	      2.11854882	     -3.15162687	    104.03842716	      0.01669868	      0.97721797	      0.71491908	     -0.67226622	     -0.45587601	      5.96173406	      0.57127284	      0.00997059	     26.45218223	    -14.83827323	      0.00000000	      3.15912331	     -0.41985919	     25.20816335	      1.35274030	      0.02360977	     27.10372013	    -16.33476508	      0.00000000	      0.37850945	     -0.20429912	     -1.44863861	      0.70292990	     -0.27171784	     -1.53917853	      0.62185317	     -0.49673289	     -1.53917853	      0.43259845	     -0.49673289	     -1.26755879	      0.35148387	     -0.41660678	     -1.17701887	      0.21628030	     -0.31645934	     -1.08647896	      2.70365514	     -2.31107256	     -8.05689338	      0.00000000	      0.00000000	     27.94627162	      8.34378757	      0.49253187	     12.60294710	      0.59678042	     62.56918373	     21.08780172	      3.43420216	      0.07663379	      3.78566860	     16.75883379	     -2.09711944	     77.78908718	     25.19473706	     56.19793629	      0.15941507	     -7.33605974
      0.13559322	      2.21763407	     -3.09661387	    104.47370202	      0.01565397	      0.97723165	      0.71386341	     -0.82956658	     -0.34921814	      5.75631717	      0.55144829	      0.00962459	     26.43380491	    -15.12003981	      0.00000000	      3.06602745	     -0.52313882	     25.73304666	      1.29413480	      0.02258691	     27.22048592	    -16.18840653	      0.00000000	      0.39128910	     -0.18749245	     -1.59338802	      0.72666298	     -0.24936495	     -1.69297478	      0.64284886	     -0.45586913	     -1.69297478	      0.44720431	     -0.45586913	     -1.39421452	      0.36335106	     -0.38233460	     -1.29462777	      0.22358259	     -0.29042580	     -1.19504102	      2.79493890	     -2.12095205	     -8.86194617	      0.00000000	      0.00000000	     27.94414859	      8.45244594	      0.80577593	     12.64824468	      0.59072062	     63.72215898	     20.92960420	      3.62401261	     -0.08719730	      3.59641411	     16.36941347	     -2.10230633	     77.04510850	     25.27595114	     55.28012854	      0.05039985	     -7.38631537
      0.15254237	      2.20640892	     -3.09926003	    104.39187327	      0.01552633	      0.97728209	      0.71318140	     -0.85094484	     -0.35250965	      5.75102939	      0.56515999	      0.00986390	     26.54162536	    -15.14510074	      0.00000000	      3.01649640	     -0.51586286	     25.71492890	      1.29462912	      0.02259554	     27.19603273	    -16.20829921	      0.00000000	      0.39546563	     -0.18564609	     -1.60869637	      0.73441922	     -0.24690930	     -1.70923989	      0.64971048	     -0.45137990	     -1.70923989	      0.45197767	     -0.45137990	     -1.40760932	      0.36722938	     -0.37856951	     -1.30706580	      0.22596906	     -0.28756579	     -1.20652228	      2.82477145	     -2.10006569	     -8.94708659	      0.00000000	      0.00000000	     27.95729066	      8.44549427	      0.83653062	     12.56228353	      0.63396539	     63.73939155	     20.92340021	      3.59588793	     -0.08589985	      3.60258902	     16.33129247	     -2.10100011	     77.00608963	     25.24619145	     55.24452726	      0.04392204	     -7.39885420
